M48
; DRILL file {KiCad 9.0.6} date 2026-03-03T12:31:17-0500
; FORMAT={-:-/ absolute / metric / decimal}
; #@! TF.CreationDate,2026-03-03T12:31:17-05:00
; #@! TF.GenerationSoftware,Kicad,Pcbnew,9.0.6
; #@! TF.FileFunction,Plated,1,2,PTH
FMAT,2
METRIC
; #@! TA.AperFunction,Plated,PTH,ComponentDrill
T1C0.200
; #@! TA.AperFunction,Plated,PTH,ViaDrill
T2C0.300
; #@! TA.AperFunction,Plated,PTH,ComponentDrill
T3C0.800
; #@! TA.AperFunction,Plated,PTH,ComponentDrill
T4C0.900
; #@! TA.AperFunction,Plated,PTH,ComponentDrill
T5C0.950
; #@! TA.AperFunction,Plated,PTH,ComponentDrill
T6C1.000
; #@! TA.AperFunction,Plated,PTH,ComponentDrill
T7C1.100
; #@! TA.AperFunction,Plated,PTH,ComponentDrill
T8C1.700
%
G90
G05
T1
X197.3Y-59.862
X198.275Y-59.137
X198.275Y-59.862
X198.275Y-60.587
X199.25Y-59.862
T2
X103.6Y-103.4
X105.7Y-103.4
X107.6Y-94.3
X113.1Y-135.9
X113.1Y-137.5
X113.1Y-143.7
X113.3Y-78.7
X114.4Y-107.4
X116.0Y-138.1
X116.05Y-132.8
X117.2Y-67.6
X117.6Y-84.5
X117.7Y-116.7
X117.7Y-118.0
X118.4Y-66.5
X119.6Y-101.8
X120.8Y-100.7
X121.7Y-132.8
X124.4Y-106.5
X125.426Y-96.526
X125.6Y-139.825
X126.3Y-104.2
X126.6Y-107.4
X127.2Y-101.0
X127.4Y-96.5
X129.0Y-132.9
X129.5Y-101.0
X130.3Y-106.5
X130.6Y-132.9
X130.814Y-99.514
X131.1Y-59.0
X131.1Y-60.9
X131.1Y-85.3
X131.1Y-91.7
X131.7Y-108.0
X132.116Y-96.516
X133.8Y-96.6
X136.2Y-139.9
X137.6Y-90.7
X140.1Y-90.7
X140.172Y-139.61
X140.2Y-135.8
X142.0Y-114.1
X142.2Y-121.875
X142.8Y-134.6
X142.874Y-132.726
X146.1Y-121.9
X147.4Y-132.7
X147.4Y-134.5
X147.7Y-100.2
X147.7Y-101.6
X148.7Y-116.4
X148.7Y-117.9
X148.7Y-130.3
X148.7Y-134.11
X151.6Y-141.6
X154.4Y-116.6
X154.4Y-117.9
X156.4Y-129.7
X158.1Y-133.0
X158.864Y-132.036
X164.3Y-59.0
X165.6Y-91.6
X165.8Y-59.0
X165.9Y-55.5
X166.1Y-139.862
X167.2Y-57.9
X167.5Y-89.8
X167.6Y-55.5
X168.074Y-57.026
X171.1Y-90.7
X171.9Y-58.6
X171.9Y-59.9
X173.5Y-58.6
X173.5Y-90.7
X175.2Y-140.0
X175.7Y-126.3
X177.4Y-124.6
X179.4Y-55.3
X179.4Y-56.75
X181.4Y-80.1
X182.9Y-75.6
X184.5Y-80.2
X185.3Y-68.0
X185.5Y-65.5
X186.1Y-74.0
X187.5Y-75.4
X189.1Y-65.6
X189.2Y-68.0
X192.376Y-72.024
X193.3Y-68.8
X193.6Y-70.7
X195.376Y-66.624
X196.524Y-66.076
X198.3Y-61.4
X200.6Y-116.1
X201.426Y-62.074
X202.274Y-61.226
X203.0Y-54.7
X203.049Y-116.049
X210.4Y-106.6
X212.449Y-106.649
X213.1Y-104.1
X213.5Y-67.8
X213.5Y-69.2
X214.376Y-72.276
X215.224Y-73.124
X215.9Y-104.1
X216.5Y-78.2
X219.6Y-71.8
X220.8Y-73.0
X220.9Y-66.98
X220.9Y-68.18
X224.3Y-120.9
X233.1Y-132.0
X234.1Y-85.0
X235.3Y-89.4
X239.7Y-111.7
T3
X135.18Y-128.5
X142.8Y-128.5
X149.7Y-57.7
X149.7Y-59.7
X157.2Y-57.8
X157.2Y-59.8
X218.4Y-123.1
X218.4Y-125.1
T4
X102.5Y-96.5
X102.5Y-114.28
X105.04Y-96.5
X105.04Y-114.28
X107.58Y-96.5
X107.58Y-114.28
X110.12Y-96.5
X110.12Y-114.28
X112.66Y-96.5
X112.66Y-114.28
X115.2Y-96.5
X115.2Y-114.28
X117.74Y-96.5
X117.74Y-114.28
X120.28Y-96.5
X120.282Y-114.28
T5
X103.1Y-122.4
X105.6Y-122.4
X108.1Y-122.4
X110.6Y-122.4
X243.475Y-104.15
X243.475Y-106.65
X243.475Y-109.15
X243.475Y-111.65
T6
X103.2Y-72.7
X103.2Y-75.24
X103.2Y-77.78
X130.0Y-144.6
X132.5Y-144.6
X244.5Y-125.2
X244.5Y-127.7
X246.5Y-85.42
X246.5Y-87.96
X246.5Y-90.5
T7
X228.4Y-118.7
X228.4Y-128.86
T8
X220.04Y-55.5
X224.0Y-55.5
M30
