%TF.GenerationSoftware,KiCad,Pcbnew,9.0.6*%
%TF.CreationDate,2026-03-03T12:30:47-05:00*%
%TF.ProjectId,kicad_files,6b696361-645f-4666-996c-65732e6b6963,rev?*%
%TF.SameCoordinates,Original*%
%TF.FileFunction,Paste,Top*%
%TF.FilePolarity,Positive*%
%FSLAX46Y46*%
G04 Gerber Fmt 4.6, Leading zero omitted, Abs format (unit mm)*
G04 Created by KiCad (PCBNEW 9.0.6) date 2026-03-03 12:30:47*
%MOMM*%
%LPD*%
G01*
G04 APERTURE LIST*
G04 Aperture macros list*
%AMRoundRect*
0 Rectangle with rounded corners*
0 $1 Rounding radius*
0 $2 $3 $4 $5 $6 $7 $8 $9 X,Y pos of 4 corners*
0 Add a 4 corners polygon primitive as box body*
4,1,4,$2,$3,$4,$5,$6,$7,$8,$9,$2,$3,0*
0 Add four circle primitives for the rounded corners*
1,1,$1+$1,$2,$3*
1,1,$1+$1,$4,$5*
1,1,$1+$1,$6,$7*
1,1,$1+$1,$8,$9*
0 Add four rect primitives between the rounded corners*
20,1,$1+$1,$2,$3,$4,$5,0*
20,1,$1+$1,$4,$5,$6,$7,0*
20,1,$1+$1,$6,$7,$8,$9,0*
20,1,$1+$1,$8,$9,$2,$3,0*%
%AMFreePoly0*
4,1,21,-0.300000,0.050000,-0.296194,0.069134,-0.285355,0.085355,-0.269134,0.096194,-0.250000,0.100000,0.250000,0.100000,0.269134,0.096194,0.285355,0.085355,0.296194,0.069134,0.300000,0.050000,0.300000,-0.050000,0.296194,-0.069134,0.285355,-0.085355,0.269134,-0.096194,0.250000,-0.100000,-0.250000,-0.100000,-0.269134,-0.096194,-0.285355,-0.085355,-0.296194,-0.069134,-0.300000,-0.050000,
-0.300000,0.050000,-0.300000,0.050000,$1*%
G04 Aperture macros list end*
%ADD10O,1.649999X0.650001*%
%ADD11RoundRect,0.250000X-0.400000X-0.625000X0.400000X-0.625000X0.400000X0.625000X-0.400000X0.625000X0*%
%ADD12R,0.670001X0.299999*%
%ADD13RoundRect,0.162500X0.447500X0.162500X-0.447500X0.162500X-0.447500X-0.162500X0.447500X-0.162500X0*%
%ADD14RoundRect,0.162500X-0.447500X-0.162500X0.447500X-0.162500X0.447500X0.162500X-0.447500X0.162500X0*%
%ADD15RoundRect,0.250001X-0.462499X-0.849999X0.462499X-0.849999X0.462499X0.849999X-0.462499X0.849999X0*%
%ADD16RoundRect,0.250000X-0.650000X0.412500X-0.650000X-0.412500X0.650000X-0.412500X0.650000X0.412500X0*%
%ADD17RoundRect,0.250000X0.400000X0.625000X-0.400000X0.625000X-0.400000X-0.625000X0.400000X-0.625000X0*%
%ADD18R,1.981200X0.558800*%
%ADD19RoundRect,0.250000X-0.625000X0.400000X-0.625000X-0.400000X0.625000X-0.400000X0.625000X0.400000X0*%
%ADD20RoundRect,0.250000X0.625000X-0.400000X0.625000X0.400000X-0.625000X0.400000X-0.625000X-0.400000X0*%
%ADD21RoundRect,0.050000X-0.050000X-0.137500X0.050000X-0.137500X0.050000X0.137500X-0.050000X0.137500X0*%
%ADD22RoundRect,0.270000X-0.270000X-0.605000X0.270000X-0.605000X0.270000X0.605000X-0.270000X0.605000X0*%
%ADD23FreePoly0,0.000000*%
%ADD24RoundRect,0.250000X-0.412500X-0.650000X0.412500X-0.650000X0.412500X0.650000X-0.412500X0.650000X0*%
%ADD25RoundRect,0.150000X-0.512500X-0.150000X0.512500X-0.150000X0.512500X0.150000X-0.512500X0.150000X0*%
%ADD26RoundRect,0.112500X-0.237500X0.112500X-0.237500X-0.112500X0.237500X-0.112500X0.237500X0.112500X0*%
%ADD27R,0.977900X0.558800*%
%ADD28RoundRect,0.250000X0.650000X-0.412500X0.650000X0.412500X-0.650000X0.412500X-0.650000X-0.412500X0*%
G04 APERTURE END LIST*
D10*
%TO.C,U5*%
X116050001Y-132800000D03*
X116050001Y-134070000D03*
X116050001Y-135340000D03*
X116050001Y-136610000D03*
X121700000Y-136610000D03*
X121700000Y-135340000D03*
X121700000Y-134070000D03*
X121700000Y-132800000D03*
%TD*%
%TO.C,U6*%
X156450001Y-129700000D03*
X156450001Y-130970000D03*
X156450001Y-132240000D03*
X156450001Y-133510000D03*
X162100000Y-133510000D03*
X162100000Y-132240000D03*
X162100000Y-130970000D03*
X162100000Y-129700000D03*
%TD*%
D11*
%TO.C,R18*%
X106900000Y-130900000D03*
X110000000Y-130900000D03*
%TD*%
D12*
%TO.C,U3*%
X171100000Y-56900000D03*
X171100000Y-57399999D03*
X171100000Y-57900001D03*
X172580002Y-57900001D03*
X172580002Y-57399999D03*
X172580002Y-56900000D03*
%TD*%
D13*
%TO.C,Q2*%
X113300000Y-78700000D03*
X113300000Y-76800000D03*
X110680000Y-77750000D03*
%TD*%
D11*
%TO.C,R11*%
X115000000Y-71100000D03*
X118100000Y-71100000D03*
%TD*%
D14*
%TO.C,Q5*%
X235400000Y-89500000D03*
X235400000Y-91400000D03*
X238020000Y-90450000D03*
%TD*%
D15*
%TO.C,L1*%
X170537500Y-53800000D03*
X172862500Y-53800000D03*
%TD*%
D16*
%TO.C,C4*%
X193100000Y-64137500D03*
X193100000Y-67262500D03*
%TD*%
D17*
%TO.C,R30*%
X241150000Y-85300000D03*
X238050000Y-85300000D03*
%TD*%
D18*
%TO.C,U4*%
X140172400Y-135800000D03*
X140172400Y-137070000D03*
X140172400Y-138340000D03*
X140172400Y-139610000D03*
X145100000Y-139610000D03*
X145100000Y-138340000D03*
X145100000Y-137070000D03*
X145100000Y-135800000D03*
%TD*%
D19*
%TO.C,R3*%
X192100000Y-54650000D03*
X192100000Y-57750000D03*
%TD*%
D20*
%TO.C,R7*%
X197400000Y-67800000D03*
X197400000Y-64700000D03*
%TD*%
D16*
%TO.C,C3*%
X202500000Y-64300000D03*
X202500000Y-67425000D03*
%TD*%
%TO.C,C8*%
X113100000Y-140537500D03*
X113100000Y-143662500D03*
%TD*%
D19*
%TO.C,R4*%
X188500000Y-56150000D03*
X188500000Y-59250000D03*
%TD*%
D20*
%TO.C,R17*%
X106900000Y-138750000D03*
X106900000Y-135650000D03*
%TD*%
D21*
%TO.C,U1*%
X197150000Y-58600000D03*
X197150000Y-61125000D03*
D22*
X197635000Y-59862500D03*
X198915000Y-59862500D03*
D21*
X199400000Y-58600000D03*
X199400000Y-61125000D03*
D23*
X196375000Y-58862500D03*
X196375000Y-59262500D03*
X196375000Y-59662500D03*
X196375000Y-60062500D03*
X196375000Y-60462500D03*
X196375000Y-60862500D03*
X200175000Y-60862500D03*
X200175000Y-60462500D03*
X200175000Y-60062500D03*
X200175000Y-59662500D03*
X200175000Y-59262500D03*
X200175000Y-58862500D03*
%TD*%
D19*
%TO.C,R12*%
X107600000Y-83050000D03*
X107600000Y-86150000D03*
%TD*%
D24*
%TO.C,C14*%
X220870000Y-63590000D03*
X223995000Y-63590000D03*
%TD*%
D16*
%TO.C,C7*%
X125600000Y-136700000D03*
X125600000Y-139825000D03*
%TD*%
D19*
%TO.C,R14*%
X151600000Y-138450000D03*
X151600000Y-141550000D03*
%TD*%
D20*
%TO.C,R15*%
X146100000Y-124950000D03*
X146100000Y-121850000D03*
%TD*%
D19*
%TO.C,R9*%
X182900000Y-71150000D03*
X182900000Y-74250000D03*
%TD*%
D16*
%TO.C,C2*%
X206100000Y-60437500D03*
X206100000Y-63562500D03*
%TD*%
D11*
%TO.C,R13*%
X133150000Y-132900000D03*
X136250000Y-132900000D03*
%TD*%
D17*
%TO.C,R22*%
X238050000Y-80900000D03*
X234950000Y-80900000D03*
%TD*%
D19*
%TO.C,R8*%
X182900000Y-64650000D03*
X182900000Y-67750000D03*
%TD*%
D16*
%TO.C,C9*%
X175200000Y-136837500D03*
X175200000Y-139962500D03*
%TD*%
D25*
%TO.C,U2*%
X216345000Y-67580000D03*
X216345000Y-68530000D03*
X216345000Y-69480000D03*
X218620000Y-69480000D03*
X218620000Y-68530000D03*
X218620000Y-67580000D03*
%TD*%
D11*
%TO.C,R23*%
X157650000Y-138200000D03*
X160750000Y-138200000D03*
%TD*%
D26*
%TO.C,Q4*%
X230700000Y-84150000D03*
X230700000Y-85450000D03*
X232700000Y-84800000D03*
%TD*%
D20*
%TO.C,R24*%
X142000000Y-114050000D03*
X142000000Y-110950000D03*
%TD*%
%TO.C,R6*%
X206100000Y-57550000D03*
X206100000Y-54450000D03*
%TD*%
D19*
%TO.C,R19*%
X151600000Y-132300000D03*
X151600000Y-135400000D03*
%TD*%
%TO.C,R21*%
X227000000Y-88150000D03*
X227000000Y-91250000D03*
%TD*%
D27*
%TO.C,Q1*%
X216520300Y-74800000D03*
X216520300Y-75750001D03*
X216520300Y-76700002D03*
X219200000Y-76700002D03*
X219200000Y-75750001D03*
X219200000Y-74800000D03*
%TD*%
D20*
%TO.C,R1*%
X215500000Y-63600000D03*
X215500000Y-60500000D03*
%TD*%
D11*
%TO.C,R10*%
X108700000Y-64200000D03*
X111800000Y-64200000D03*
%TD*%
D19*
%TO.C,R2*%
X211500000Y-70800000D03*
X211500000Y-73900000D03*
%TD*%
D16*
%TO.C,C10*%
X166100000Y-136737500D03*
X166100000Y-139862500D03*
%TD*%
D11*
%TO.C,R20*%
X133100000Y-138100000D03*
X136200000Y-138100000D03*
%TD*%
%TO.C,R16*%
X171950000Y-129800000D03*
X175050000Y-129800000D03*
%TD*%
%TO.C,R5*%
X197050000Y-54300000D03*
X200150000Y-54300000D03*
%TD*%
D26*
%TO.C,Q3*%
X115600000Y-81750000D03*
X115600000Y-83050000D03*
X117600000Y-82400000D03*
%TD*%
D28*
%TO.C,C11*%
X142200000Y-125000000D03*
X142200000Y-121875000D03*
%TD*%
D25*
%TO.C,Q7*%
X226900000Y-133300000D03*
X226900000Y-135200000D03*
X229175000Y-134250000D03*
%TD*%
M02*
